HIERARCHY
ROOT hip
{
	OFFSET 0.000000 0.000000 0.000000 
	CHANNELS 6 Xposition Yposition Zposition Xrotation Zrotation Yrotation
	JOINT abdomen
	{
		OFFSET 0.000000 3.402643 0.000000 
		CHANNELS 3 Xrotation Zrotation Yrotation
		JOINT chest
		{
			OFFSET 0.000000 8.438565 -0.680529 
			CHANNELS 3 Xrotation Zrotation Yrotation
			JOINT neck
			{
				OFFSET 0.000000 10.207942 -0.272212 
				CHANNELS 3 Xrotation Zrotation Yrotation
				JOINT head
				{
					OFFSET 0.000000 3.130431 0.000000 
					CHANNELS 3 Xrotation Zrotation Yrotation
					End Site
					{
						OFFSET 0.000000 3.130435 0.000000 
					}
				}
			}
			JOINT lCollar
			{
				OFFSET 3.470700 6.669187 -0.816635 
				CHANNELS 3 Yrotation Zrotation Xrotation
				JOINT lShldr
				{
					OFFSET 3.198488 0.000000 0.000000 
					CHANNELS 3 Zrotation Yrotation Xrotation
					JOINT lForeArm
					{
						OFFSET 10.139888 0.000000 0.000000 
						CHANNELS 3 Yrotation Zrotation Xrotation
						JOINT lHand
						{
							OFFSET 8.370511 0.000000 0.000000 
							CHANNELS 3 Zrotation Yrotation Xrotation
							End Site
							{
								OFFSET 4.083176 0.000000 0.000000 
							}
						}
					}
				}
			}
			JOINT rCollar
			{
				OFFSET -3.470700 6.669187 -0.816635 
				CHANNELS 3 Yrotation Zrotation Xrotation
				JOINT rShldr
				{
					OFFSET -3.198488 0.000000 0.000000 
					CHANNELS 3 Zrotation Yrotation Xrotation
					JOINT rForeArm
					{
						OFFSET -10.139888 0.000000 0.000000 
						CHANNELS 3 Yrotation Zrotation Xrotation
						JOINT rHand
						{
							OFFSET -8.370511 0.000000 0.000000 
							CHANNELS 3 Zrotation Yrotation Xrotation
							End Site
							{
								OFFSET -4.083176 0.000000 0.000000 
							}
						}
					}
				}
			}
		}
	}
	JOINT lThigh
	{
		OFFSET 5.308129 -1.633274 1.361059 
		CHANNELS 3 Xrotation Zrotation Yrotation
		JOINT lShin
		{
			OFFSET -2.041588 -20.007561 0.000000 
			CHANNELS 3 Xrotation Zrotation Yrotation
			JOINT lFoot
			{
				OFFSET 0.000000 -19.190928 -1.224953 
				CHANNELS 3 Xrotation Yrotation Zrotation
				End Site
				{
					OFFSET 0.000000 -2.449906 4.627600 
				}
			}
		}
	}
	JOINT rThigh
	{
		OFFSET -5.308129 -1.633274 1.361059 
		CHANNELS 3 Xrotation Zrotation Yrotation
		JOINT rShin
		{
			OFFSET 2.041588 -20.007561 0.000000 
			CHANNELS 3 Xrotation Zrotation Yrotation
			JOINT rFoot
			{
				OFFSET 0.000000 -19.190928 -1.224953 
				CHANNELS 3 Xrotation Yrotation Zrotation
				End Site
				{
					OFFSET 0.000000 -2.449906 4.627600 
				}
			}
		}
	}
}
MOTION
Frames: 10
Frame Time: 0.016667
1.124584 42.778034 -0.835546 -1.162430 1.337620 -3.415800 -12.283400 8.242180 0.318351 12.738800 4.557040 -0.282777 21.464899 -11.053000 -5.632920 13.754600 1.086780 -2.633010 2.000000 -2.000000 0.000000 88.346603 166.975998 -5.382380 53.242699 -0.296664 0.109589 0.067368 -0.063189 -160.115005 -2.000000 2.000000 0.000000 58.847900 36.957802 124.946999 -16.211100 0.346128 0.038171 -0.055578 -0.009657 -129.968994 -17.955875 -5.061883 7.771347 52.163612 1.487660 3.659436 -14.517197 1.363793 0.133350 -24.226175 -4.500453 22.603386 38.268776 -3.061822 -2.569126 -17.313948 -3.152652 -1.900250 
2.321975 42.543720 -1.056160 -0.644623 0.966736 -1.114390 -12.580300 8.799000 -0.004544 12.428400 5.114390 -0.455723 21.005501 -10.582500 -6.059080 13.501700 1.280760 -2.888840 2.000000 -2.000000 0.000000 87.770401 166.431000 -6.369980 53.242699 -0.296664 0.109589 0.067857 -0.064318 -160.554993 -2.000000 2.000000 0.000000 58.668598 33.246498 117.289001 -18.545099 0.344465 0.043485 -0.054428 0.003090 -138.024994 -17.731022 -6.454620 6.089292 50.202148 1.574773 3.575087 -16.566462 1.096336 -0.109528 -24.559738 -4.809658 23.424381 39.378700 -3.050960 -2.619168 -20.018351 -4.868596 -2.855770 
3.478328 42.280483 -1.219118 -0.097670 0.976561 0.857711 -12.795200 8.783800 0.135544 12.322100 4.987370 -0.339768 20.530600 -9.544760 -7.313910 13.267700 1.359230 -3.496750 2.000000 -2.000000 0.000000 88.873596 165.932999 -6.175820 52.646999 -0.297799 0.108732 0.068895 -0.066640 -161.462997 -2.000000 2.000000 0.000000 59.009602 27.522200 118.757004 -24.541300 0.339214 0.056788 -0.060046 0.042186 -152.166000 -17.404690 -7.997393 4.780024 48.199516 1.680219 3.466295 -18.305576 0.970093 -0.331620 -24.991777 -4.543380 25.835690 41.251396 -2.962077 -2.747181 -21.276081 -6.644880 -3.688971 
4.653533 42.159210 -1.387940 0.429743 0.917943 2.028520 -12.952600 8.698050 -0.046576 12.074600 5.167780 -0.456589 19.765900 -9.725740 -7.233900 12.993900 1.312610 -3.452270 2.000000 -2.000000 0.000000 89.274002 165.145996 -7.954990 51.533699 -0.299895 0.107101 0.068489 -0.065743 -161.110992 -2.000000 2.000000 0.000000 59.073898 23.333500 118.078003 -30.469101 0.332685 0.069328 -0.079165 0.067732 -161.891998 -17.403515 -9.444474 4.480874 46.652222 1.706725 3.424175 -19.539679 -1.291556 -1.443488 -26.301750 -4.182962 25.259848 43.622482 -2.741457 -2.910368 -19.349726 -5.943449 -3.272015 
5.764557 42.045525 -1.582869 1.093960 1.113080 2.960890 -13.002200 8.560430 -0.498816 11.929900 5.687310 -0.753570 18.799900 -9.962610 -6.751580 12.721000 1.410690 -3.248440 2.000000 -2.000000 0.000000 -91.613701 15.510000 168.557007 50.088402 -0.302567 0.104922 0.067325 -0.063088 -160.076004 -2.000000 2.000000 0.000000 58.473000 20.493601 116.362000 -35.351898 0.326356 0.079107 -0.086798 0.082156 -167.722000 -17.282347 -10.860968 5.509485 44.720032 1.759687 3.323643 -19.819933 -1.231321 -1.670030 -29.104048 -4.018201 21.234995 47.931030 -2.362484 -3.191102 -17.934162 -4.350949 -2.597218 
6.865966 42.178364 -1.745950 1.621730 1.610680 3.756790 -12.756900 8.220490 -0.812947 12.112100 5.970200 -0.962065 18.219101 -10.177400 -6.310750 12.574200 1.363250 -3.024940 2.000000 -2.000000 0.000000 -91.329697 15.477300 167.082993 48.096199 -0.306160 0.101809 0.066510 -0.061147 -159.324005 -2.000000 2.000000 0.000000 56.965302 18.200001 115.109001 -38.857800 0.321311 0.085778 179.914001 179.904007 6.506070 -16.694399 -12.987972 4.475408 42.042473 1.833713 3.198519 -18.632961 -1.964235 -2.129276 -31.738070 -3.545253 17.587105 52.098732 -1.937474 -3.473850 -16.449957 -5.255395 -2.615542 
7.948952 42.476467 -1.869871 2.511150 1.902470 5.025100 -12.676100 8.064880 -1.609200 12.199100 6.657710 -1.433850 18.262800 -11.364600 -5.454370 12.670100 1.034450 -2.574550 2.000000 -2.000000 0.000000 -91.777496 15.091900 165.110992 45.908699 -0.309977 0.098250 0.064560 -0.056184 -157.419998 -2.000000 2.000000 0.000000 54.948502 17.069201 113.043999 -42.109798 0.316274 0.091679 179.904999 179.893997 1.662330 -16.251289 -14.392491 4.667237 39.009869 1.918064 3.031715 -16.787685 -3.589964 -2.844566 -34.722515 -2.687054 14.179782 55.829857 -1.526698 -3.726500 -15.073754 -4.482384 -2.107081 
9.043159 42.859440 -1.899360 3.401160 2.290880 6.298500 -12.747000 7.866060 -2.555970 12.165600 7.420610 -1.989540 18.575500 -11.970600 -4.462040 12.855400 0.966002 -2.073900 2.000000 -2.000000 0.000000 -92.196800 15.255500 164.057999 44.961399 -0.311588 0.096665 0.062559 -0.060276 -155.270996 -2.000000 2.000000 0.000000 53.217800 16.956301 107.924004 -44.277802 0.312733 0.095451 179.901001 179.889008 -0.534947 -15.455373 -15.818969 5.342622 35.742413 1.984621 2.868370 -14.071935 -5.759044 -3.498279 -37.200142 -1.945525 10.805408 58.025291 -1.258543 -3.890401 -13.405780 0.051277 -0.640174 
10.171484 43.243050 -1.829934 4.406650 1.869460 7.790770 -12.690200 7.865490 -3.518220 12.539800 7.940230 -2.461000 18.480000 -11.991400 -3.365270 12.885600 1.149190 -1.536970 2.000000 -2.000000 0.000000 -92.089798 15.276400 164.673996 45.146900 -0.311274 0.096977 0.052251 -0.048847 -154.645996 -2.000000 2.000000 0.000000 51.190300 16.010700 105.499001 -46.553200 0.308866 0.099262 179.893005 179.871994 -4.568110 -14.955674 -16.336510 6.265407 33.210415 2.013540 2.720565 -11.487586 -7.730435 -3.882622 -38.977745 -0.398768 6.724349 57.865170 -1.129844 -3.934482 -11.213490 5.414429 0.734111 
11.318863 43.530739 -1.718989 5.687040 1.992110 9.368480 -12.898200 7.427950 -3.897550 12.730300 7.779330 -2.578990 18.646999 -11.519200 -3.893280 12.924100 1.042860 -1.728610 2.000000 -2.000000 0.000000 -90.450500 15.524600 166.438004 46.113701 -0.309625 0.098590 0.051727 -0.047177 -154.020996 -2.000000 2.000000 0.000000 49.920300 13.237200 105.497002 -50.176300 0.302406 0.105005 179.888000 179.867004 -6.902110 -14.433257 -17.336802 7.851102 30.355923 2.026875 2.583855 -8.711693 -10.415635 -4.208220 -40.384823 0.444350 2.203902 56.174942 -1.106308 -3.926730 -9.680712 10.378643 1.782370 
